<svg width="227" height="204" viewBox="0 0 227 204" fill="none" xmlns="http://www.w3.org/2000/svg">
<g clip-path="url(#clip0_643_4971)">
<path d="M29.81 106.12C27.9947 110.69 26.6543 115.435 25.81 120.28C23.5011 131.092 22.5903 142.156 23.1 153.2C23.0781 153.345 23.1057 153.492 23.1783 153.619C23.2509 153.747 23.3642 153.845 23.5 153.9C25.1726 154.687 26.7495 155.664 28.2 156.81C29.52 157.88 31.96 162.16 28.46 161.43C26.26 160.96 24.09 159.37 22.29 158.08C21.63 157.61 21.01 158.38 21.1 158.99C21.4297 161.389 21.5901 163.808 21.58 166.23C21.5805 167.449 21.4191 168.663 21.1 169.84C20.8 170.93 19.1 172.51 18.18 171.16C16.27 168.36 17.4 163.78 17.02 160.59C17.0163 160.432 16.967 160.278 16.8779 160.147C16.7888 160.016 16.6638 159.914 16.5179 159.853C16.372 159.792 16.2115 159.774 16.0557 159.802C15.8999 159.829 15.7555 159.902 15.64 160.01C13.12 162.43 12.01 166.1 9.49997 168.6C8.35997 169.74 7.30997 169.3 7.24997 167.65C7.34522 166.255 7.72286 164.894 8.35997 163.65C9.20878 161.645 10.2931 159.749 11.59 158C12.07 157.36 11.13 156.43 10.48 156.89C8.71997 158.16 3.84997 163.16 1.82997 160.47C0.659972 158.9 3.24997 156.82 4.25997 156C6.91339 153.959 9.82535 152.277 12.92 151C14.82 150.14 14.39 146.59 14.55 144.79C15 139.79 15.32 134.79 15.86 129.72C16.6887 122.747 18.1412 115.863 20.2 109.15C22.69 100.73 26.69 91.15 34.71 86.65C36.7092 88.8983 39.3642 90.4619 42.3 91.12C38.8321 92.9453 36.1014 95.9127 34.57 99.52C32.16 100.83 30.84 103.71 29.81 106.12Z" fill="#EECFD7"/>
<path d="M91 139.59C94.5695 139.516 98.0228 138.307 100.86 136.14V167.05C98.25 167.05 95.65 167.27 93.04 167.19C92.53 158 91.4 148.82 91 139.59Z" fill="#EECFD7"/>
<path d="M91.51 176.43C95.01 177.155 98.6297 177.066 102.09 176.17C102.09 177.923 102.09 179.673 102.09 181.42C99.4 182.59 94.39 183.05 91.45 181.67C91.49 179.93 91.49 178.18 91.51 176.43Z" fill="#043353"/>
<path d="M83.2299 201.49C81.6599 201.7 80.0899 201.88 78.5099 201.99C76.6899 202.12 73.5099 202.56 72.2999 200.84C71.701 199.847 71.3845 198.71 71.3845 197.55C71.3845 196.39 71.701 195.253 72.2999 194.26C73.5299 191.97 76.6199 191.34 78.9899 190.85C82.4499 192.52 83.5199 197.79 83.2299 201.49Z" fill="white"/>
<path d="M102.07 193.15C102.07 194.15 102 195.15 101.92 196.15C101.82 197.43 101.29 197.15 100.03 197.57C95.7443 198.961 91.3714 200.067 86.9398 200.88C86.2498 201.01 85.5598 201.1 84.8698 201.21C85.0898 197.6 84.0698 192.86 81.2698 190.42C83.2698 190.14 85.3798 189.99 87.4098 189.65C87.4342 189.691 87.4645 189.728 87.4998 189.76C88.122 190.15 88.6466 190.677 89.0332 191.301C89.4198 191.925 89.6581 192.629 89.7298 193.36C89.7298 194.36 91.3798 194.41 91.3498 193.36C91.3112 192.574 91.1142 191.804 90.7705 191.096C90.4268 190.388 89.9436 189.757 89.3498 189.24C89.8498 189.11 90.3498 188.97 90.8398 188.79C93.7298 191.02 99.2698 191.51 102.1 189.17C102.12 190.51 102.1 191.83 102.07 193.15Z" fill="#E44646"/>
<path d="M102.13 186.79C102.004 186.86 101.9 186.964 101.83 187.09C100.16 189.97 93.63 189.52 91.46 187.22C91.46 185.66 91.46 184.1 91.46 182.54C92.828 182.92 94.2401 183.118 95.66 183.13C97.8449 183.301 100.041 183.001 102.1 182.25C102.1 183.12 102.1 183.98 102.1 184.84C102.14 185.49 102.13 186.14 102.13 186.79Z" fill="white"/>
<path d="M102.1 175.34C98.6439 176.264 95.0183 176.356 91.5198 175.61C91.5198 173.39 91.5198 171.17 91.6698 168.95C91.6698 168.82 91.6698 168.69 91.6698 168.56C91.796 168.657 91.9434 168.722 92.0998 168.75C92.9198 169.13 94.8098 168.86 95.3098 168.85C97.6298 168.85 99.9298 168.66 102.25 168.67C102.15 170.89 102.1 173.11 102.1 175.34Z" fill="white"/>
<path d="M128.89 175.41C128.89 173.18 128.89 170.96 128.72 168.74C130.66 168.74 132.59 168.81 134.53 168.89C135.65 168.89 136.77 168.89 137.89 168.89C138.095 168.889 138.298 168.852 138.49 168.78C138.626 168.819 138.77 168.825 138.909 168.797C139.049 168.769 139.179 168.709 139.29 168.62C139.29 168.62 139.29 168.62 139.29 168.7C139.45 170.95 139.43 173.21 139.46 175.46V175.66C135.966 176.411 132.344 176.326 128.89 175.41V175.41Z" fill="white"/>
<path d="M139.48 176.5C139.48 178.25 139.48 180 139.48 181.74C136.55 183.12 131.54 182.66 128.86 181.49C128.86 179.74 128.86 177.99 128.86 176.24C132.333 177.142 135.967 177.231 139.48 176.5V176.5Z" fill="#043353"/>
<path d="M128.85 185.62C128.85 184.52 128.85 183.42 128.85 182.32C130.915 183.047 133.106 183.347 135.29 183.2C136.711 183.207 138.126 183.008 139.49 182.61C139.49 184.17 139.49 185.73 139.49 187.29C137.32 189.59 130.79 190.04 129.12 187.15C129.049 187.027 128.945 186.926 128.82 186.86C128.86 186.45 128.85 186 128.85 185.62Z" fill="white"/>
<path d="M152 191C157.3 192.16 161.58 194.41 159.08 200.32C157.78 203.4 151.36 202.32 147.81 201.64C147.47 197.94 148.5 192.7 152 191Z" fill="white"/>
<path d="M140.11 188.87C140.611 189.041 141.122 189.181 141.64 189.29C141.042 189.81 140.556 190.446 140.213 191.159C139.869 191.873 139.674 192.649 139.64 193.44C139.64 194.49 141.23 194.44 141.26 193.44C141.331 192.709 141.57 192.005 141.956 191.381C142.343 190.757 142.868 190.23 143.49 189.84C143.552 189.784 143.606 189.72 143.65 189.65C145.48 189.93 147.6 190.18 149.65 190.53C146.87 192.98 145.85 197.71 146.08 201.31C141.225 200.533 136.436 199.397 131.75 197.91C131.06 197.7 129.21 197.46 129.09 196.84C128.975 195.968 128.915 195.09 128.91 194.21C128.85 192.55 128.82 190.9 128.82 189.21C131.69 191.59 137.23 191.1 140.11 188.87Z" fill="#E44646"/>
<path d="M140.07 132.26C139.54 143.93 138.54 155.58 137.99 167.26C135.39 167.35 132.79 167.18 130.19 167.13V132.86H130.26C133.602 132.619 136.715 131.074 138.93 128.56C139.19 129.706 139.632 130.804 140.24 131.81C140.138 131.939 140.078 132.096 140.07 132.26V132.26Z" fill="#EECFD7"/>
<path d="M194.51 90.35C193.02 100.83 180.74 102.89 172.12 102.15C170.63 102.02 170.64 104.34 172.12 104.47C176.683 104.906 181.287 104.406 185.65 103C190.35 108.77 190.85 116 185.43 121.6C180.68 126.47 173.03 127.46 167.56 123.31C166.37 122.41 165.22 124.42 166.39 125.31C166.823 125.635 167.273 125.936 167.74 126.21C166.22 133.21 160.8 137.34 153.48 136.87C147.48 136.48 140.63 132.24 140.97 125.54C140.97 125.54 140.97 125.54 140.97 125.48C141.843 123.688 142.404 121.76 142.63 119.78C142.81 118.3 140.49 118.32 140.31 119.78C139.59 125.78 135.86 130.04 129.76 130.6C126.76 130.87 120.83 130.2 119.54 126.84C119.475 126.667 119.369 126.512 119.23 126.39C119.725 125.043 119.956 123.614 119.91 122.18C119.77 116.44 119.44 111.92 125.91 109.78C127.32 109.32 126.71 107.09 125.29 107.55C121.67 108.74 118.8 110.74 117.74 114.55C116.8 117.93 118.09 121.44 117.4 124.82C116.65 128.51 112.19 130.23 108.89 130.48C106.638 130.657 104.394 130.047 102.541 128.754C100.688 127.461 99.3411 125.565 98.73 123.39C98.27 121.98 96.04 122.58 96.5 124.01C97.3809 126.842 99.2423 129.267 101.75 130.85C99.47 138.4 84.3 139.78 80.92 132.58C80.8153 132.36 80.634 132.186 80.41 132.09C81.3515 130.788 81.9872 129.291 82.27 127.71C82.54 126.25 80.27 125.63 80.03 127.1C78.77 133.91 71.97 135.41 66.28 132.71C64.9254 132.105 63.7175 131.215 62.7389 130.1C61.7603 128.985 61.0341 127.672 60.61 126.25C59.54 122.25 62.14 118.42 64.68 115.67C65.68 114.58 64.06 112.94 63.05 114.03C61.4016 115.722 60.0494 117.68 59.05 119.82C58.8918 119.785 58.7281 119.785 58.57 119.82C53.02 121.14 47.23 121.41 42.3 118.16C39.1327 115.931 36.8302 112.678 35.78 108.95C34.85 105.36 35.93 101.32 37.7 98.18C40.33 93.52 45.26 91.39 50.44 91.31C50.7476 91.31 51.0427 91.1878 51.2602 90.9702C51.4777 90.7527 51.6 90.4577 51.6 90.15C51.6 89.8424 51.4777 89.5473 51.2602 89.3298C51.0427 89.1122 50.7476 88.99 50.44 88.99C49.2324 89.0116 48.0299 89.1523 46.85 89.41C46.7725 89.3828 46.6918 89.366 46.61 89.36C40.01 89.25 34.41 85.82 34.22 78.76C34.08 73.59 37.3 67.93 42.72 67.19C42.9499 67.1594 43.162 67.0498 43.32 66.88C45.0562 68.2561 47.1268 69.1465 49.32 69.46C50.78 69.69 51.41 67.46 49.94 67.22C40.71 65.75 39.41 56.42 43.85 49.43C47.97 42.94 58.48 40.12 63.19 47.43C63.2937 47.5918 63.4386 47.723 63.61 47.81C64.0842 48.4275 64.6353 48.982 65.25 49.46C68.8 52.15 70.97 55.54 70.47 60.15C70.31 61.63 72.62 61.61 72.78 60.15C72.9866 58.1516 72.7336 56.1323 72.0403 54.2466C71.347 52.3609 70.2318 50.6587 68.78 49.27C67.95 48.45 66.88 47.82 65.99 47.06C64.7561 45.7449 64.048 44.0226 64 42.22C63.9026 40.9097 64.0742 39.5933 64.5041 38.3517C64.934 37.1102 65.6132 35.9696 66.5 35C68.18 33.1708 70.2789 31.7767 72.6163 30.9371C74.9538 30.0976 77.46 29.8378 79.92 30.18C85.02 31 87.31 35.84 87.42 40.52C87.4343 40.7654 87.525 41.0003 87.6794 41.1917C87.8337 41.3831 88.0439 41.5215 88.2808 41.5876C88.5176 41.6536 88.7691 41.6441 89.0003 41.5603C89.2314 41.4765 89.4306 41.3225 89.57 41.12C89.7378 41.066 89.8913 40.9751 90.0194 40.854C90.1474 40.7328 90.2467 40.5845 90.31 40.42C91.82 36.52 96.55 35.48 100.23 36.42C103.91 37.36 106.05 41 107 44.41C107 44.63 107 44.85 107 45.08C107.09 46.56 109.41 46.57 109.31 45.08C109.31 44.87 109.31 44.66 109.31 44.45C109.31 44.45 109.31 44.45 109.31 44.39C109.31 41.62 110.03 38.77 112.85 37.63C113.95 37.19 116.7 36.71 117.46 38.05C117.529 38.1796 117.625 38.2936 117.74 38.3848C117.855 38.476 117.988 38.5424 118.13 38.58C117.839 41.7963 118.438 45.0306 119.86 47.93C120.53 49.26 122.53 48.09 121.86 46.76C118.3 39.59 120.92 29.76 129.38 27.91C138.12 26.01 147.16 32.16 147.75 41.17C147.85 42.65 150.16 42.66 150.06 41.17C149.895 38.7913 149.212 36.4774 148.06 34.39C148.206 34.3425 148.342 34.2678 148.46 34.17C154.01 29.38 161.15 29.53 167.2 33.31C172.64 36.71 176.3 43.23 174.81 49.63C172.182 50.6996 169.899 52.4708 168.21 54.75C167.3 55.92 168.93 57.57 169.84 56.39C172.22 53.39 175.44 50.78 179.51 51.47C182.94 52.04 185.7 54.73 187.51 57.55C189.364 60.2876 190.137 63.6154 189.68 66.89C188.93 70.97 185.17 72.89 181.38 73.35C181.221 73.3314 181.059 73.3514 180.909 73.4083C180.759 73.4652 180.625 73.5574 180.518 73.677C180.411 73.7966 180.335 73.9402 180.295 74.0956C180.255 74.2511 180.254 74.4138 180.29 74.57C180.263 74.719 180.273 74.8722 180.319 75.0165C180.364 75.1609 180.444 75.2922 180.551 75.3992C180.658 75.5062 180.789 75.5858 180.933 75.6312C181.078 75.6766 181.231 75.6865 181.38 75.66C189 76.24 195.66 82.26 194.51 90.35Z" fill="#EECFD7"/>
<path d="M223.39 14.3C221.191 17.2706 218.578 19.9107 215.63 22.14C215.14 22.54 214.38 22.85 214.42 23.49C214.54 25.27 214.68 27.05 214.8 28.83C215.167 33.93 215.52 39.0267 215.86 44.12C216.27 50.62 216.38 56.92 214.37 63.21C211.37 72.65 203.66 78.31 194.21 80.16C192.176 77.4772 189.392 75.4586 186.21 74.36C187.375 73.8297 188.435 73.0947 189.34 72.19C211.29 70.07 208.84 38.07 203.84 22.8C203.816 22.6584 203.748 22.528 203.646 22.4274C203.544 22.3269 203.412 22.2612 203.27 22.24C201.094 21.8494 198.984 21.156 197 20.18C195.4 19.38 192.37 15.76 195.88 15.53C198.35 15.36 201.17 16.53 203.44 17.38C203.579 17.4193 203.725 17.4208 203.865 17.3845C204.004 17.3482 204.131 17.2753 204.233 17.1734C204.335 17.0715 204.408 16.9442 204.444 16.8048C204.481 16.6653 204.479 16.5187 204.44 16.38C203.465 14.0038 202.65 11.565 202 9.08C201.596 7.63194 201.404 6.13307 201.43 4.63C201.43 3.44 202.87 1.36 204.19 2.44C207.05 4.79 207.11 10.13 208.37 13.38C208.416 13.5302 208.505 13.6639 208.626 13.7651C208.746 13.8664 208.893 13.9308 209.049 13.9508C209.205 13.9709 209.363 13.9456 209.505 13.8781C209.647 13.8106 209.767 13.7036 209.85 13.57C211.85 10.37 212.01 6.18 213.97 2.88C214.84 1.42 216.09 1.31 216.69 3.1C217.045 4.66681 217.045 6.2932 216.69 7.86C216.336 10.1965 215.705 12.4826 214.81 14.67C214.51 15.41 215.66 16.06 216.17 15.46C217.59 13.76 221.5 7 224.41 9.35C225.88 10.59 224.16 13.14 223.39 14.3Z" fill="#EECFD7"/>
<path d="M106.39 96C107.63 105.07 126.12 105 126.6 95.22C126.67 93.73 124.35 93.74 124.28 95.22C123.94 102.31 109.5 101.82 108.62 95.38C108.41 93.91 106.18 94.54 106.39 96Z" fill="#043353"/>
<path d="M152.16 84.38C147.84 84.07 141.36 86.23 141.36 91.17C141.36 96.73 147.53 97.34 151.54 97.34C155.55 97.34 160.75 98.34 162.66 93.95C164.57 89.56 162.93 84.35 152.16 84.38Z" fill="#E1ACBA"/>
<path d="M152.16 82.84C146.77 82.61 138.75 85.59 139.91 92.34C141.04 98.93 148.56 98.75 153.75 98.95C156.92 99.07 159.9 98.95 162.46 96.95C164.24 95.51 164.95 92.62 164.84 90.44C164.52 84.18 157.06 82.94 152.16 82.87C151.752 82.87 151.36 83.0323 151.071 83.3211C150.782 83.6099 150.62 84.0016 150.62 84.41C150.62 84.8184 150.782 85.2101 151.071 85.499C151.36 85.7878 151.752 85.95 152.16 85.95C155.29 85.95 161.22 86.27 161.75 90.44C162.38 95.36 157.47 96.03 153.75 95.89C150.44 95.78 145.34 96.37 143.31 93.09C140.15 88.01 148.96 85.82 152.16 85.95C154.16 86.04 154.16 82.95 152.16 82.87V82.84Z" fill="#E1ACBA"/>
<path d="M77.5898 85.48C73.2698 85.17 66.7898 87.33 66.7898 92.27C66.7898 97.83 72.9598 98.44 76.9698 98.44C80.9798 98.44 86.1798 99.44 88.0798 95.05C89.9798 90.66 88.3598 85.45 77.5898 85.48" fill="#E1ACBA"/>
<path d="M77.5898 83.94C72.2098 83.71 64.1798 86.69 65.3398 93.44C66.4698 100.02 73.9898 99.85 79.1798 100.05C82.3498 100.17 85.3298 100.05 87.8798 98.05C89.6698 96.62 90.3798 93.73 90.2698 91.55C89.9998 85.25 82.4898 84 77.5898 83.94C77.1814 83.94 76.7897 84.1023 76.5009 84.3911C76.212 84.6799 76.0498 85.0716 76.0498 85.48C76.0498 85.8884 76.212 86.2801 76.5009 86.569C76.7897 86.8578 77.1814 87.02 77.5898 87.02C80.7198 87.02 86.6498 87.34 87.1798 91.51C87.8098 96.43 82.8998 97.09 79.1798 96.96C75.8698 96.84 70.7698 97.44 68.7298 94.16C65.5698 89.07 74.3898 86.89 77.5898 87.02C79.5898 87.11 79.5898 84.02 77.5898 83.94Z" fill="#E1ACBA"/>
<path d="M77.9998 65.45C72.4498 69.78 70.7898 75.3 73.6698 81.07C74.6071 82.6917 75.8709 84.1012 77.3813 85.2091C78.8916 86.317 80.6155 87.0993 82.4439 87.5063C84.2723 87.9133 86.1652 87.9363 88.0029 87.5737C89.8406 87.2111 91.583 86.471 93.1198 85.4C108 75.25 92.3998 55.6 77.9998 65.45Z" fill="white"/>
<path d="M77.4299 64.29C74.1499 67 71.8399 70.21 71.4999 74.53C71.1599 78.68 73.5599 82.65 76.7199 85.12C82.9999 90.05 92.5699 88.24 97.2899 82C101.29 76.72 100.4 70 95.8699 65.4C90.8699 60.3 83.2799 60.47 77.5899 64.17C76.7599 64.71 77.5299 66.04 78.3699 65.5C83.2699 62.31 89.1299 61.98 93.8699 65.67C95.9454 67.2275 97.4072 69.4653 97.9995 71.9917C98.5918 74.5181 98.2769 77.1723 97.1099 79.49C93.7299 86 85.2399 88.07 78.9999 84.77C77.2857 83.8369 75.8361 82.4842 74.7867 80.8385C73.7374 79.1929 73.1226 77.3079 72.9999 75.36C72.6799 71.23 75.4999 67.83 78.4799 65.36C79.2499 64.73 78.1599 63.64 77.3899 64.27L77.4299 64.29Z" fill="#043353"/>
<path d="M135.78 62.67C130.23 67 128.57 72.53 131.45 78.3C132.388 79.9238 133.653 81.335 135.165 82.4438C136.678 83.5527 138.404 84.335 140.235 84.7412C142.066 85.1474 143.961 85.1686 145.8 84.8035C147.64 84.4383 149.383 83.6948 150.92 82.62C165.82 72.48 150.2 52.82 135.78 62.62" fill="white"/>
<path d="M135.23 61.51C131.95 64.2 129.63 67.44 129.29 71.75C128.96 75.91 131.36 79.87 134.52 82.34C140.82 87.27 150.36 85.46 155.08 79.22C159.08 73.94 158.2 67.22 153.67 62.62C148.67 57.52 141.08 57.69 135.39 61.39C134.56 61.93 135.33 63.27 136.17 62.72C141.07 59.53 146.93 59.21 151.67 62.9C153.743 64.4571 155.203 66.693 155.795 69.2172C156.388 71.7414 156.074 74.3934 154.91 76.71C151.53 83.23 143 85.29 136.79 82C135.084 81.0621 133.643 79.7071 132.603 78.0615C131.562 76.4159 130.956 74.5335 130.84 72.59C130.52 68.46 133.34 65.06 136.32 62.59C137.09 61.96 136 60.87 135.23 61.5V61.51Z" fill="#043353"/>
<path d="M84.0899 72.06C82.3499 73.37 81.8199 75.06 82.7299 76.79C83.0375 77.2857 83.4422 77.7142 83.9196 78.0496C84.3969 78.385 84.9372 78.6205 85.5078 78.742C86.0785 78.8634 86.6678 78.8682 87.2404 78.7562C87.813 78.6441 88.357 78.4175 88.8399 78.09C93.5199 75.03 88.6199 69.09 84.0899 72.09" fill="#043353"/>
<path d="M140.56 68.84C138.82 70.15 138.29 71.84 139.2 73.57C139.507 74.0657 139.912 74.4942 140.39 74.8296C140.867 75.165 141.407 75.4005 141.978 75.522C142.548 75.6434 143.138 75.6482 143.71 75.5362C144.283 75.4241 144.827 75.1975 145.31 74.87C149.99 71.81 145.09 65.87 140.56 68.87" fill="#043353"/>
<path d="M226.11 9C224.11 4.64 220.3 7.94 217.63 11C218.83 6.43 219.68 0 215.52 0C211.36 0 210.52 6.73 209.28 10.73C208.28 6.73 207.15 0.45 203.28 0.47C200.64 0.47 199.75 3.79 199.83 5.83C200.106 9.05604 200.921 12.213 202.24 15.17C199.24 14.02 194.88 12.72 193.03 15.41C189.82 20.08 199.24 22.99 202.43 23.71C206.85 37.71 209.55 67.04 190.79 70.37C191.113 69.839 191.387 69.2801 191.61 68.7C193.08 64.81 191.74 60.23 189.78 56.78C188.786 54.9265 187.419 53.2989 185.765 51.9995C184.111 50.7002 182.206 49.7572 180.17 49.23C179.234 49.029 178.272 48.9751 177.32 49.07C178.42 42.17 174.57 35.75 168.99 31.71C165.774 29.2992 161.829 28.0619 157.812 28.2038C153.795 28.3457 149.948 29.8582 146.91 32.49C144.944 29.8379 142.279 27.7844 139.214 26.5589C136.148 25.3335 132.802 24.9841 129.55 25.55C126.894 25.9822 124.427 27.1985 122.467 29.0427C120.507 30.887 119.143 33.2749 118.55 35.9C116.87 34.58 114.04 34.75 112.2 35.4C111.144 35.7727 110.187 36.3805 109.4 37.1774C108.614 37.9743 108.019 38.9394 107.66 40C106.808 38.3938 105.6 37.0036 104.129 35.9359C102.657 34.8683 100.961 34.1513 99.1699 33.84C97.3596 33.5369 95.5014 33.7198 93.7849 34.3698C92.0684 35.0199 90.5553 36.1138 89.3999 37.54C89.124 35.7702 88.4554 34.0845 87.4431 32.6068C86.4308 31.129 85.1006 29.8966 83.5499 29C78.9999 26.48 73.1099 27.92 68.8099 30.25C66.5442 31.4088 64.6684 33.2072 63.4152 35.4221C62.162 37.637 61.5864 40.171 61.7599 42.71C55.6599 38.71 46.7599 41.41 42.3499 47.62C38.4599 53.13 37.9999 60.41 41.5999 65.06C35.4099 66.27 31.9999 72.83 31.9999 78.75C31.9486 81.0625 32.5667 83.3406 33.7799 85.31C25.3999 90 21.3099 99.92 18.6399 108.69C16.3017 116.462 14.7473 124.448 13.9999 132.53C13.5099 137.79 13.2299 143.08 12.6199 148.33C12.5199 149.21 12.6199 149.33 12.5499 149.39C11.9899 149.63 11.4499 149.89 10.8999 150.15C8.93852 151.09 7.03811 152.152 5.20989 153.33C2.87989 154.86 -0.400108 157.21 0.0998924 160.33C0.799892 164.76 4.94989 162.76 8.09989 160.64C5.98989 164.55 3.77989 170.19 7.60989 170.89C11.4399 171.59 13.4799 166.15 15.5199 162.89C15.4599 166.68 15.1099 172.27 18.5199 173.27C20.9999 173.99 22.6099 170.99 22.9999 169.11C23.4548 166.251 23.4548 163.339 22.9999 160.48C25.4699 162.22 28.9999 164.28 31.2499 162.27C35.1699 158.81 27.4899 154.06 24.7799 152.67C24.3844 142.735 25.1259 132.787 26.9899 123.02C27.7625 118.263 28.9128 113.575 30.4299 109C31.1399 106.94 32.0899 104.2 33.6899 102.34C33.1859 104.563 33.1282 106.864 33.5199 109.11C34.2199 113.11 37.4399 117.47 40.7099 119.82C45.9299 123.57 52.2899 123.57 58.3399 122.27C58.0726 123.476 58.0353 124.721 58.2299 125.94C58.5885 127.764 59.3585 129.482 60.4815 130.964C61.6044 132.446 63.0506 133.652 64.7099 134.49C69.4499 137.14 75.2699 136.9 78.9299 133.74C80.6999 137.5 84.8599 139.37 89.3099 139.59C89.7599 148.79 90.8899 157.9 91.3599 167.1H90.9399C90.7612 167.097 90.5867 167.155 90.4451 167.264C90.3034 167.373 90.2029 167.526 90.1599 167.7C89.6299 171.03 89.8899 174.6 89.8599 177.96C89.8599 180.28 89.8599 182.613 89.8599 184.96C89.8599 185.66 89.8599 186.35 89.8599 187.05C89.799 187.121 89.7547 187.204 89.7305 187.294C89.7063 187.384 89.7026 187.478 89.7199 187.57C83.9699 189.33 76.5799 187.97 71.8599 192.26C69.3099 194.59 68.5699 201.68 72.4899 203.19C74.9999 204.19 77.9699 203.77 80.5699 203.53C84.7046 203.103 88.8046 202.388 92.8399 201.39C95.9599 200.65 100.06 200.04 102.84 198.39C103.52 197.99 103.49 196.92 103.55 196.25C104.45 186.87 103.36 177.34 103.93 167.94C103.948 167.784 103.912 167.627 103.828 167.494C103.744 167.362 103.618 167.261 103.47 167.21C103.361 167.157 103.241 167.126 103.12 167.12H102.44V134.51C103.067 133.721 103.557 132.832 103.89 131.88C105.852 132.636 107.967 132.907 110.057 132.67C112.146 132.434 114.147 131.696 115.89 130.52C116.676 130.008 117.375 129.374 117.96 128.64C120.05 131.85 124.78 132.93 128.6 132.93V167.11H127.91C127.793 167.119 127.678 167.146 127.57 167.19C127.42 167.239 127.291 167.339 127.206 167.472C127.12 167.605 127.083 167.763 127.1 167.92C127.67 177.34 126.73 186.83 127.47 196.24C127.47 196.83 127.47 197.83 128.03 198.24C128.86 198.93 130.38 199.15 131.39 199.48C133.29 200.09 135.22 200.6 137.15 201.1C141.185 202.118 145.28 202.883 149.41 203.39C152.3 203.74 155.76 204.24 158.56 203.16C162.25 201.74 161.76 195.16 159.65 192.76C155.39 187.86 147.12 189.18 141.33 187.53C141.343 187.44 141.337 187.348 141.313 187.26C141.289 187.173 141.247 187.091 141.19 187.02C141.19 186.48 141.19 185.94 141.19 185.39C141.19 183.13 141.19 180.87 141.19 178.61C141.19 175.05 141.45 171.25 140.89 167.71C140.843 167.539 140.742 167.389 140.601 167.282C140.459 167.175 140.287 167.118 140.11 167.12H139.68C140.22 155.94 141.14 144.79 141.68 133.61C144.536 136.633 148.368 138.549 152.5 139.02C160.97 140.02 167.99 135.32 169.94 127.2C175.76 129.47 182.46 127.61 187.12 123.2C193.46 117.2 192.77 108.54 187.93 102.07C192.5 99.93 196.04 96.28 196.86 90.53C197.324 87.4526 196.743 84.3083 195.21 81.6C204.89 79.6 212.4 73.68 215.82 64.14C218.57 56.46 217.82 48.35 217.3 40.38C216.94 35.01 216.54 29.63 216.16 24.25C216.16 24.01 216.06 23.94 215.98 23.94L216.2 23.78L217.72 22.53C219.381 21.1143 220.957 19.6017 222.44 18C224.52 15.78 227.62 12.23 226.11 9ZM29.8099 106.12C27.9946 110.69 26.6542 115.435 25.8099 120.28C23.501 131.092 22.5902 142.156 23.0999 153.2C23.0781 153.345 23.1057 153.492 23.1783 153.62C23.2508 153.747 23.3642 153.845 23.4999 153.9C25.1725 154.687 26.7494 155.664 28.1999 156.81C29.5199 157.88 31.9599 162.16 28.4599 161.43C26.2599 160.96 24.0899 159.37 22.2899 158.08C21.6299 157.61 21.0099 158.38 21.0999 158.99C21.4296 161.389 21.59 163.808 21.5799 166.23C21.5804 167.449 21.419 168.663 21.0999 169.84C20.7999 170.93 19.0999 172.51 18.1799 171.16C16.2699 168.36 17.3999 163.78 17.0199 160.59C17.0163 160.432 16.9669 160.278 16.8778 160.147C16.7888 160.016 16.6637 159.914 16.5178 159.853C16.3719 159.792 16.2114 159.774 16.0556 159.802C15.8998 159.83 15.7555 159.902 15.6399 160.01C13.1199 162.43 12.0099 166.1 9.49989 168.6C8.35989 169.74 7.30989 169.3 7.24989 167.65C7.34514 166.255 7.72278 164.894 8.35989 163.65C9.2087 161.645 10.293 159.749 11.5899 158C12.0699 157.36 11.1299 156.43 10.4799 156.89C8.71989 158.16 3.84989 163.16 1.82989 160.47C0.659892 158.9 3.24989 156.82 4.25989 156C6.91331 153.959 9.82527 152.277 12.9199 151C14.8199 150.14 14.3899 146.59 14.5499 144.79C14.9999 139.79 15.3199 134.79 15.8599 129.72C16.6886 122.747 18.1411 115.863 20.1999 109.15C22.6899 100.73 26.6899 91.15 34.7099 86.65C36.7092 88.8983 39.3641 90.4619 42.2999 91.12C38.832 92.9453 36.1013 95.9127 34.5699 99.52C32.1599 100.83 30.8399 103.71 29.8099 106.12ZM90.9999 139.59C94.5694 139.516 98.0227 138.307 100.86 136.14V167.05C98.2499 167.05 95.6499 167.27 93.0399 167.19C92.5299 158 91.3999 148.82 90.9999 139.59ZM91.5599 176.43C95.0599 177.155 98.6797 177.066 102.14 176.17C102.14 177.923 102.14 179.673 102.14 181.42C99.4499 182.59 94.4399 183.05 91.4999 181.67C91.4899 179.93 91.4899 178.18 91.5099 176.43H91.5599ZM83.2799 201.49C81.7099 201.7 80.1399 201.88 78.5599 201.99C76.7399 202.12 73.5599 202.56 72.3499 200.84C71.751 199.847 71.4345 198.71 71.4345 197.55C71.4345 196.39 71.751 195.253 72.3499 194.26C73.5799 191.97 76.6699 191.34 79.0399 190.85C82.4499 192.52 83.5199 197.79 83.2299 201.49H83.2799ZM102.12 193.15C102.12 194.15 102.05 195.15 101.97 196.15C101.87 197.43 101.34 197.15 100.08 197.57C95.7945 198.961 91.4215 200.067 86.9899 200.88C86.2999 201.01 85.6099 201.1 84.9199 201.21C85.1399 197.6 84.1199 192.86 81.3199 190.42C83.3199 190.14 85.4299 189.99 87.4599 189.65C87.4843 189.691 87.5146 189.728 87.5499 189.76C88.1722 190.15 88.6968 190.677 89.0834 191.301C89.47 191.925 89.7082 192.629 89.7799 193.36C89.7799 194.36 91.4299 194.41 91.3999 193.36C91.3613 192.574 91.1643 191.804 90.8206 191.096C90.4769 190.388 89.9937 189.757 89.3999 189.24C89.8999 189.11 90.3999 188.97 90.8899 188.79C93.7799 191.02 99.3199 191.51 102.15 189.17C102.12 190.51 102.1 191.83 102.07 193.15H102.12ZM102.18 186.79C102.054 186.86 101.95 186.964 101.88 187.09C100.21 189.97 93.6799 189.52 91.5099 187.22C91.5099 185.66 91.5099 184.1 91.5099 182.54C92.8779 182.92 94.2901 183.118 95.7099 183.13C97.8948 183.301 100.091 183.001 102.15 182.25C102.15 183.12 102.15 183.98 102.15 184.84C102.14 185.49 102.13 186.14 102.13 186.79H102.18ZM102.18 175.34C98.724 176.264 95.0984 176.356 91.5999 175.61C91.5999 173.39 91.5999 171.17 91.7499 168.95C91.7499 168.82 91.7499 168.69 91.7499 168.56C91.8761 168.657 92.0235 168.722 92.1799 168.75C92.9999 169.13 94.8899 168.86 95.3899 168.85C97.7099 168.85 100.01 168.66 102.33 168.67C102.15 170.89 102.1 173.11 102.1 175.34H102.18ZM128.97 175.41C128.97 173.18 128.97 170.96 128.8 168.74C130.74 168.74 132.67 168.81 134.61 168.89C135.73 168.89 136.85 168.89 137.97 168.89C138.175 168.889 138.378 168.852 138.57 168.78C138.706 168.819 138.85 168.825 138.989 168.797C139.128 168.769 139.259 168.709 139.37 168.62C139.37 168.62 139.37 168.62 139.37 168.7C139.53 170.95 139.51 173.21 139.54 175.46V175.66C136.02 176.424 132.37 176.338 128.89 175.41H128.97ZM139.56 176.5C139.56 178.25 139.56 180 139.56 181.74C136.63 183.12 131.62 182.66 128.94 181.49C128.94 179.74 128.94 177.99 128.94 176.24C132.387 177.129 135.993 177.218 139.48 176.5H139.56ZM128.93 185.62C128.93 184.52 128.93 183.42 128.93 182.32C130.995 183.047 133.186 183.347 135.37 183.2C136.791 183.207 138.206 183.008 139.57 182.61C139.57 184.17 139.57 185.73 139.57 187.29C137.4 189.59 130.87 190.04 129.2 187.15C129.129 187.027 129.025 186.926 128.9 186.86C128.86 186.45 128.85 186 128.85 185.62H128.93ZM152 191C157.3 192.16 161.58 194.41 159.08 200.32C157.78 203.4 151.36 202.32 147.81 201.64C147.47 197.94 148.5 192.7 152 191ZM140.16 188.9C140.661 189.07 141.172 189.211 141.69 189.32C141.092 189.84 140.606 190.476 140.263 191.189C139.919 191.903 139.724 192.679 139.69 193.47C139.69 194.52 141.28 194.47 141.31 193.47C141.382 192.739 141.62 192.035 142.006 191.411C142.393 190.787 142.918 190.26 143.54 189.87C143.602 189.814 143.656 189.75 143.7 189.68C145.53 189.96 147.65 190.21 149.7 190.56C146.92 193.01 145.9 197.74 146.13 201.34C141.276 200.563 136.486 199.427 131.8 197.94C131.11 197.73 129.26 197.49 129.14 196.87C129.025 195.998 128.965 195.12 128.96 194.24C128.9 192.58 128.87 190.93 128.87 189.24C131.69 191.59 137.23 191.1 140.11 188.87L140.16 188.9ZM140.16 132.29C139.63 143.96 138.63 155.61 138.08 167.29C135.48 167.38 132.88 167.21 130.28 167.16V132.86H130.35C133.692 132.619 136.805 131.074 139.02 128.56C139.28 129.706 139.722 130.804 140.33 131.81C140.195 131.926 140.103 132.085 140.07 132.26L140.16 132.29ZM194.6 90.38C193.11 100.86 180.83 102.92 172.21 102.18C170.72 102.05 170.73 104.37 172.21 104.5C176.745 104.914 181.317 104.404 185.65 103C190.35 108.77 190.85 116 185.43 121.6C180.68 126.47 173.03 127.46 167.56 123.31C166.37 122.41 165.22 124.42 166.39 125.31C166.823 125.635 167.273 125.936 167.74 126.21C166.22 133.21 160.8 137.34 153.48 136.87C147.48 136.48 140.63 132.24 140.97 125.54C140.97 125.54 140.97 125.54 140.97 125.48C141.843 123.688 142.404 121.76 142.63 119.78C142.81 118.3 140.49 118.32 140.31 119.78C139.59 125.78 135.86 130.04 129.76 130.6C126.76 130.87 120.83 130.2 119.54 126.84C119.475 126.667 119.368 126.512 119.23 126.39C119.725 125.043 119.956 123.614 119.91 122.18C119.77 116.44 119.44 111.92 125.91 109.78C127.32 109.32 126.71 107.09 125.29 107.55C121.67 108.74 118.8 110.74 117.74 114.55C116.8 117.93 118.09 121.44 117.4 124.82C116.65 128.51 112.19 130.23 108.89 130.48C106.637 130.657 104.393 130.047 102.541 128.754C100.688 127.461 99.341 125.565 98.7299 123.39C98.2699 121.98 96.0399 122.58 96.4999 124.01C97.3809 126.842 99.2422 129.267 101.75 130.85C99.4699 138.4 84.2999 139.78 80.9199 132.58C80.8153 132.36 80.6339 132.186 80.4099 132.09C81.3514 130.788 81.9872 129.291 82.2699 127.71C82.5399 126.25 80.2699 125.63 80.0299 127.1C78.7699 133.91 71.9699 135.41 66.2799 132.71C64.9253 132.105 63.7174 131.215 62.7388 130.1C61.7602 128.985 61.034 127.672 60.6099 126.25C59.5399 122.25 62.1399 118.42 64.6799 115.67C65.6799 114.58 64.0599 112.94 63.0499 114.03C61.4015 115.722 60.0494 117.68 59.0499 119.82C58.8918 119.785 58.728 119.785 58.5699 119.82C53.0199 121.14 47.2299 121.41 42.2999 118.16C39.1326 115.931 36.8301 112.678 35.7799 108.95C34.8499 105.36 35.9299 101.32 37.6999 98.18C40.3299 93.52 45.2599 91.39 50.4399 91.31C50.7475 91.31 51.0426 91.1878 51.2601 90.9702C51.4777 90.7527 51.5999 90.4577 51.5999 90.15C51.5999 89.8424 51.4777 89.5473 51.2601 89.3298C51.0426 89.1122 50.7475 88.99 50.4399 88.99C49.2323 89.0116 48.0298 89.1523 46.8499 89.41C46.7724 89.3828 46.6917 89.366 46.6099 89.36C40.0099 89.25 34.4099 85.82 34.2199 78.76C34.0799 73.59 37.2999 67.93 42.7199 67.19C42.9498 67.1594 43.1619 67.0498 43.3199 66.88C45.0562 68.2561 47.1267 69.1465 49.3199 69.46C50.7799 69.69 51.4099 67.46 49.9399 67.22C40.7099 65.75 39.4099 56.42 43.8499 49.43C47.9699 42.94 58.4799 40.12 63.1899 47.43C63.2936 47.5918 63.4386 47.723 63.6099 47.81C64.0841 48.4275 64.6352 48.982 65.2499 49.46C68.7999 52.15 70.9699 55.54 70.4699 60.15C70.3099 61.63 72.6199 61.61 72.7799 60.15C72.9865 58.1516 72.7335 56.1323 72.0402 54.2466C71.347 52.3609 70.2318 50.6587 68.7799 49.27C67.9499 48.45 66.8799 47.82 65.9899 47.06C64.756 45.7449 64.0479 44.0226 63.9999 42.22C63.9026 40.9097 64.0741 39.5933 64.504 38.3517C64.934 37.1102 65.6131 35.9696 66.4999 35C68.18 33.1708 70.2788 31.7767 72.6162 30.9371C74.9537 30.0976 77.4599 29.8378 79.9199 30.18C85.0199 31 87.3099 35.84 87.4199 40.52C87.4343 40.7654 87.525 41.0003 87.6793 41.1917C87.8336 41.3831 88.0439 41.5215 88.2807 41.5876C88.5175 41.6536 88.769 41.6441 89.0002 41.5603C89.2313 41.4765 89.4305 41.3225 89.5699 41.12C89.7377 41.066 89.8913 40.9751 90.0193 40.854C90.1474 40.7328 90.2467 40.5845 90.3099 40.42C91.8199 36.52 96.5499 35.48 100.23 36.42C103.91 37.36 106.05 41 107 44.41C107 44.63 107 44.85 107 45.08C107.09 46.56 109.41 46.57 109.31 45.08C109.31 44.87 109.31 44.66 109.31 44.45C109.31 44.45 109.31 44.45 109.31 44.39C109.31 41.62 110.03 38.77 112.85 37.63C113.95 37.19 116.7 36.71 117.46 38.05C117.529 38.1796 117.624 38.2936 117.74 38.3848C117.855 38.476 117.988 38.5424 118.13 38.58C117.839 41.7963 118.438 45.0306 119.86 47.93C120.53 49.26 122.53 48.09 121.86 46.76C118.3 39.59 120.92 29.76 129.38 27.91C138.12 26.01 147.16 32.16 147.75 41.17C147.85 42.65 150.16 42.66 150.06 41.17C149.895 38.7913 149.212 36.4774 148.06 34.39C148.206 34.3425 148.342 34.2678 148.46 34.17C154.01 29.38 161.15 29.53 167.2 33.31C172.64 36.71 176.3 43.23 174.81 49.63C172.182 50.6996 169.899 52.4708 168.21 54.75C167.3 55.92 168.93 57.57 169.84 56.39C172.22 53.39 175.44 50.78 179.51 51.47C182.94 52.04 185.7 54.73 187.51 57.55C189.364 60.2876 190.137 63.6154 189.68 66.89C188.93 70.97 185.17 72.89 181.38 73.35C181.221 73.3314 181.059 73.3514 180.909 73.4083C180.759 73.4652 180.625 73.5574 180.518 73.677C180.411 73.7966 180.335 73.9402 180.295 74.0956C180.255 74.2511 180.254 74.4138 180.29 74.57C180.263 74.719 180.273 74.8722 180.319 75.0165C180.364 75.1609 180.444 75.2922 180.551 75.3992C180.658 75.5062 180.789 75.5858 180.933 75.6312C181.078 75.6766 181.231 75.6865 181.38 75.66C189 76.24 195.66 82.26 194.51 90.35L194.6 90.38ZM223.48 14.38C221.281 17.3506 218.668 19.9907 215.72 22.22C215.23 22.62 214.47 22.93 214.51 23.57C214.63 25.35 214.77 27.13 214.89 28.91C215.257 34.01 215.61 39.1067 215.95 44.2C216.36 50.7 216.47 57 214.46 63.29C211.46 72.73 203.75 78.39 194.3 80.24C192.266 77.5572 189.482 75.5386 186.3 74.44C187.465 73.9097 188.525 73.1747 189.43 72.27C211.38 70.15 208.93 38.15 203.93 22.88C203.906 22.7384 203.838 22.608 203.736 22.5074C203.633 22.4069 203.502 22.3412 203.36 22.32C201.149 21.9122 199.008 21.1916 197 20.18C195.4 19.38 192.37 15.76 195.88 15.53C198.35 15.36 201.17 16.53 203.44 17.38C203.579 17.4193 203.725 17.4208 203.865 17.3845C204.004 17.3482 204.131 17.2753 204.233 17.1734C204.335 17.0715 204.408 16.9442 204.444 16.8048C204.481 16.6653 204.479 16.5187 204.44 16.38C203.465 14.0038 202.65 11.565 202 9.08C201.596 7.63193 201.404 6.13306 201.43 4.63C201.43 3.44 202.87 1.36 204.19 2.44C207.05 4.79 207.11 10.13 208.37 13.38C208.416 13.5302 208.505 13.6639 208.626 13.7651C208.746 13.8664 208.893 13.9308 209.049 13.9508C209.205 13.9709 209.363 13.9456 209.505 13.8781C209.647 13.8106 209.767 13.7036 209.85 13.57C211.85 10.37 212.01 6.18 213.97 2.88C214.84 1.42 216.09 1.31 216.69 3.1C217.045 4.66681 217.045 6.29319 216.69 7.86C216.336 10.1965 215.704 12.4826 214.81 14.67C214.51 15.41 215.66 16.06 216.17 15.46C217.59 13.76 221.5 7 224.41 9.35C225.88 10.59 224.16 13.14 223.39 14.3L223.48 14.38Z" fill="#043353"/>
<path d="M206.93 71.17C204.7 63.63 198.71 61.67 191.46 63.02C182.56 64.66 174.46 69.31 165.78 71.81C165.572 66.5299 163.367 61.5257 159.61 57.81C151.73 49.81 139.69 49.81 130.61 55.81C130.61 55.81 130.53 55.9 130.48 55.94C130.43 55.98 130.4 55.94 130.37 56C125.44 60 121.72 65.05 121.08 71.35C117.45 68.48 110.76 68.68 107.19 71.67C106.476 67.234 104.376 63.138 101.19 59.97C93.3199 51.97 81.2699 51.97 72.2399 57.97L72.1999 58C72.1999 58 72.1199 58 72.0899 58.06C67.5399 61.72 63.9999 66.33 62.9999 72C54.3499 69.5 46.2999 65.09 37.4499 63.25C30.2299 61.75 24.1799 63.98 21.9899 71.4C21.9472 71.5536 21.9352 71.7142 21.9545 71.8725C21.9739 72.0308 22.0243 72.1837 22.1027 72.3225C22.1812 72.4613 22.2862 72.5833 22.4119 72.6816C22.5375 72.7798 22.6812 72.8523 22.8349 72.895C22.9885 72.9377 23.1491 72.9497 23.3073 72.9303C23.4656 72.9109 23.6185 72.8606 23.7574 72.7821C23.8962 72.7037 24.0182 72.5986 24.1164 72.473C24.2147 72.3474 24.2872 72.2036 24.3299 72.05C26.7799 63.81 34.2699 64.66 41.0799 66.7C48.4299 68.9 55.3299 72.38 62.7199 74.47V74.98C62.7535 78.0308 63.4847 81.0334 64.8574 83.7582C66.2302 86.4829 68.2081 88.8574 70.6399 90.7C80.9999 98.56 95.9999 96.12 103.7 85.66C106.002 82.5701 107.307 78.8512 107.44 75C107.584 74.8947 107.706 74.7622 107.8 74.61C110.07 70.72 118.8 70.61 120.8 74.61C120.869 74.7641 120.975 74.8982 121.11 75C121.459 77.6721 122.337 80.2479 123.692 82.5776C125.046 84.9073 126.851 86.9443 129 88.57C139.37 96.43 154.34 93.99 162.06 83.57C164.049 80.8908 165.298 77.735 165.68 74.42H165.74C173.31 72.35 180.39 68.85 187.86 66.5C194.65 64.38 202.19 63.68 204.61 71.85C204.73 72.1193 204.944 72.3358 205.212 72.4594C205.48 72.583 205.784 72.6054 206.067 72.5225C206.35 72.4395 206.593 72.2568 206.752 72.0081C206.911 71.7594 206.974 71.4617 206.93 71.17V71.17ZM103.12 82.11C97.5499 92.54 83.7799 95.85 73.8499 90C71.372 88.5022 69.2897 86.4319 67.7776 83.9628C66.2655 81.4937 65.3678 78.6978 65.1599 75.81C64.6499 69.27 68.8499 63.81 73.6299 59.95C81.3299 54.89 90.8199 54.45 98.1899 60.39C104.69 65.62 107.13 74.63 103.12 82.11ZM161.45 80C155.87 90.43 142.11 93.74 132.18 87.87C129.701 86.3735 127.618 84.3035 126.105 81.8341C124.593 79.3647 123.696 76.5683 123.49 73.68C122.97 67.15 127.17 61.73 131.96 57.83C139.65 52.76 149.15 52.32 156.51 58.27C163 63.49 165.46 72.5 161.45 80Z" fill="#E44646"/>
</g>
<defs>
<clipPath id="clip0_643_4971">
<rect width="226.51" height="203.83" fill="white"/>
</clipPath>
</defs>
</svg>
